<?xml version="1.0" encoding="UTF-8"?>
<svg xmlns="http://www.w3.org/2000/svg" width="1600" height="900" viewBox="0 0 1600 900" font-family="Inter, Arial, Helvetica, sans-serif">
<defs>
  <marker id="arrow" markerWidth="12" markerHeight="12" refX="10" refY="5.5" orient="auto">
    <path d="M 0 0 L 11 5.5 L 0 11 z" fill="#2f4f6f"/>
  </marker>
  <filter id="shadow" x="-10%" y="-10%" width="120%" height="130%">
    <feDropShadow dx="0" dy="5" stdDeviation="5" flood-color="#10233f" flood-opacity="0.14"/>
  </filter>
</defs>
<rect width="1600" height="900" fill="#f7fafc"/>
<rect x="28" y="28" width="1544" height="844" rx="30" fill="#ffffff" stroke="#e2e8f0" stroke-width="2"/>
<text x="74" y="92" font-size="42" font-weight="850" fill="#10233f">apply and render operations</text>
<text x="76" y="130" font-size="23" font-weight="600" fill="#63758d">Validation, planning, dry-run, apply, and render inspect the same resource graph with different side effects.</text>
<g filter="url(#shadow)">
<g>
  <rect x="72" y="176" width="430" height="600" rx="24" fill="#f6f8fb" stroke="#d9e2ef" stroke-width="2"/>
  <text x="100" y="218" font-size="25" font-weight="800" fill="#45556f">Shared inputs</text>
</g>
<g>
  <rect x="540" y="176" width="470" height="600" rx="24" fill="#f6f8fb" stroke="#d9e2ef" stroke-width="2"/>
  <text x="568" y="218" font-size="25" font-weight="800" fill="#45556f">Operation mode</text>
</g>
<g>
  <rect x="1048" y="176" width="480" height="600" rx="24" fill="#f6f8fb" stroke="#d9e2ef" stroke-width="2"/>
  <text x="1076" y="218" font-size="25" font-weight="800" fill="#45556f">Output or mutation</text>
</g>
<g>
  <rect x="112" y="245" width="340" height="96" rx="18" fill="#e9f8ef" stroke="#2e7d55" stroke-width="3"/>
  <text x="282" y="287.05" font-size="23" font-weight="700" fill="#13233a" text-anchor="middle" dominant-baseline="middle"><tspan x="282" dy="0">router.yaml</tspan><tspan x="282" dy="28">resources and refs</tspan></text>
</g>
<g>
  <rect x="112" y="420" width="340" height="96" rx="18" fill="#eaf2ff" stroke="#3267b1" stroke-width="3"/>
  <text x="282" y="462.05" font-size="23" font-weight="700" fill="#13233a" text-anchor="middle" dominant-baseline="middle"><tspan x="282" dy="0">schema + defaults</tspan><tspan x="282" dy="28">platform constraints</tspan></text>
</g>
<g>
  <rect x="112" y="595" width="340" height="96" rx="18" fill="#fff4e6" stroke="#c57a1c" stroke-width="3"/>
  <text x="282" y="637.05" font-size="23" font-weight="700" fill="#13233a" text-anchor="middle" dominant-baseline="middle"><tspan x="282" dy="0">effective view</tspan><tspan x="282" dy="28">when + dynamic + SAM</tspan></text>
</g>
<g>
  <rect x="580" y="225" width="390" height="82" rx="18" fill="#f5f3ff" stroke="#6d5bd0" stroke-width="3"/>
  <text x="775" y="260.05" font-size="23" font-weight="700" fill="#13233a" text-anchor="middle" dominant-baseline="middle"><tspan x="775" dy="0">validate</tspan><tspan x="775" dy="28">shape and references</tspan></text>
</g>
<g>
  <rect x="580" y="345" width="390" height="82" rx="18" fill="#eef8f9" stroke="#2b8a92" stroke-width="3"/>
  <text x="775" y="380.05" font-size="23" font-weight="700" fill="#13233a" text-anchor="middle" dominant-baseline="middle"><tspan x="775" dy="0">plan</tspan><tspan x="775" dy="28">host diff preview</tspan></text>
</g>
<g>
  <rect x="580" y="465" width="390" height="82" rx="18" fill="#fff8df" stroke="#d7a725" stroke-width="3"/>
  <text x="775" y="500.05" font-size="23" font-weight="700" fill="#13233a" text-anchor="middle" dominant-baseline="middle"><tspan x="775" dy="0">dry-run apply</tspan><tspan x="775" dy="28">run controllers without writes</tspan></text>
</g>
<g>
  <rect x="580" y="585" width="390" height="82" rx="18" fill="#e9f8ef" stroke="#2e7d55" stroke-width="3"/>
  <text x="775" y="620.05" font-size="23" font-weight="700" fill="#13233a" text-anchor="middle" dominant-baseline="middle"><tspan x="775" dy="0">apply / serve</tspan><tspan x="775" dy="28">write owned artifacts</tspan></text>
</g>
<g>
  <rect x="1088" y="255" width="390" height="92" rx="18" fill="#fcefee" stroke="#b64e4a" stroke-width="3"/>
  <text x="1283" y="295.05" font-size="23" font-weight="700" fill="#13233a" text-anchor="middle" dominant-baseline="middle"><tspan x="1283" dy="0">errors and warnings</tspan><tspan x="1283" dy="28">before host mutation</tspan></text>
</g>
<g>
  <rect x="1088" y="405" width="390" height="92" rx="18" fill="#eaf2ff" stroke="#3267b1" stroke-width="3"/>
  <text x="1283" y="445.05" font-size="23" font-weight="700" fill="#13233a" text-anchor="middle" dominant-baseline="middle"><tspan x="1283" dy="0">rendered files</tspan><tspan x="1283" dy="28">routes tables units rules</tspan></text>
</g>
<g>
  <rect x="1088" y="555" width="390" height="92" rx="18" fill="#eef8f9" stroke="#2b8a92" stroke-width="3"/>
  <text x="1283" y="595.05" font-size="23" font-weight="700" fill="#13233a" text-anchor="middle" dominant-baseline="middle"><tspan x="1283" dy="0">state DB</tspan><tspan x="1283" dy="28">status events ledger</tspan></text>
</g>
<line x1="452" y1="293" x2="580" y2="266" fill="none" stroke="#2f4f6f" stroke-width="4" marker-end="url(#arrow)"/>
<line x1="452" y1="468" x2="580" y2="386" fill="none" stroke="#2f4f6f" stroke-width="4" marker-end="url(#arrow)"/>
<line x1="452" y1="643" x2="580" y2="626" fill="none" stroke="#2f4f6f" stroke-width="4" marker-end="url(#arrow)"/>
<line x1="970" y1="266" x2="1088" y2="301" fill="none" stroke="#2f4f6f" stroke-width="4" marker-end="url(#arrow)"/>
<line x1="970" y1="386" x2="1088" y2="451" fill="none" stroke="#2f4f6f" stroke-width="4" marker-end="url(#arrow)"/>
<line x1="970" y1="626" x2="1088" y2="601" fill="none" stroke="#2f4f6f" stroke-width="4" marker-end="url(#arrow)"/>
<line x1="775" y1="307" x2="775" y2="345" fill="none" stroke="#2f4f6f" stroke-width="4" marker-end="url(#arrow)"/>
<line x1="775" y1="427" x2="775" y2="465" fill="none" stroke="#2f4f6f" stroke-width="4" marker-end="url(#arrow)"/>
<line x1="775" y1="547" x2="775" y2="585" fill="none" stroke="#2f4f6f" stroke-width="4" marker-end="url(#arrow)"/>
</g>
</svg>
