<?xml version="1.0" encoding="UTF-8"?>
<svg xmlns="http://www.w3.org/2000/svg" width="1600" height="900" viewBox="0 0 1600 900" font-family="Inter, Arial, Helvetica, sans-serif">
<defs>
  <marker id="arrow" markerWidth="12" markerHeight="12" refX="10" refY="5.5" orient="auto">
    <path d="M 0 0 L 11 5.5 L 0 11 z" fill="#2f4f6f"/>
  </marker>
  <filter id="shadow" x="-10%" y="-10%" width="120%" height="130%">
    <feDropShadow dx="0" dy="5" stdDeviation="5" flood-color="#10233f" flood-opacity="0.14"/>
  </filter>
</defs>
<rect width="1600" height="900" fill="#f7fafc"/>
<rect x="28" y="28" width="1544" height="844" rx="30" fill="#ffffff" stroke="#e2e8f0" stroke-width="2"/>
<text x="74" y="92" font-size="42" font-weight="850" fill="#10233f">reading a routerd config example</text>
<text x="76" y="130" font-size="23" font-weight="600" fill="#63758d">Example pages connect topology numbers, YAML excerpts, validation, dry-run apply, and runtime checks.</text>
<g filter="url(#shadow)">
<g>
  <rect x="72" y="176" width="430" height="600" rx="24" fill="#f6f8fb" stroke="#d9e2ef" stroke-width="2"/>
  <text x="100" y="218" font-size="25" font-weight="800" fill="#45556f">Documentation page</text>
</g>
<g>
  <rect x="540" y="176" width="470" height="600" rx="24" fill="#f6f8fb" stroke="#d9e2ef" stroke-width="2"/>
  <text x="568" y="218" font-size="25" font-weight="800" fill="#45556f">Local edits and safety</text>
</g>
<g>
  <rect x="1048" y="176" width="480" height="600" rx="24" fill="#f6f8fb" stroke="#d9e2ef" stroke-width="2"/>
  <text x="1076" y="218" font-size="25" font-weight="800" fill="#45556f">Router verification</text>
</g>
<g>
  <rect x="112" y="245" width="340" height="96" rx="18" fill="#eaf2ff" stroke="#3267b1" stroke-width="3"/>
  <text x="282" y="287.05" font-size="23" font-weight="700" fill="#13233a" text-anchor="middle" dominant-baseline="middle"><tspan x="282" dy="0">Topology diagram</tspan><tspan x="282" dy="28">[1] WAN [2] router [3] LAN</tspan></text>
</g>
<g>
  <rect x="112" y="420" width="340" height="96" rx="18" fill="#e9f8ef" stroke="#2e7d55" stroke-width="3"/>
  <text x="282" y="462.05" font-size="23" font-weight="700" fill="#13233a" text-anchor="middle" dominant-baseline="middle"><tspan x="282" dy="0">Diagram map</tspan><tspan x="282" dy="28">number -&gt; resource</tspan></text>
</g>
<g>
  <rect x="112" y="595" width="340" height="96" rx="18" fill="#fff4e6" stroke="#c57a1c" stroke-width="3"/>
  <text x="282" y="637.05" font-size="23" font-weight="700" fill="#13233a" text-anchor="middle" dominant-baseline="middle"><tspan x="282" dy="0">YAML excerpts</tspan><tspan x="282" dy="28">comments match [1] [2] [3]</tspan></text>
</g>
<g>
  <rect x="580" y="250" width="390" height="88" rx="18" fill="#f5f3ff" stroke="#6d5bd0" stroke-width="3"/>
  <text x="775" y="288.05" font-size="23" font-weight="700" fill="#13233a" text-anchor="middle" dominant-baseline="middle"><tspan x="775" dy="0">Copy complete example</tspan><tspan x="775" dy="28">YAML</tspan></text>
</g>
<g>
  <rect x="580" y="385" width="390" height="88" rx="18" fill="#e9f8ef" stroke="#2e7d55" stroke-width="3"/>
  <text x="775" y="423.05" font-size="23" font-weight="700" fill="#13233a" text-anchor="middle" dominant-baseline="middle"><tspan x="775" dy="0">Replace interfaces, addresses, ISP</tspan><tspan x="775" dy="28">values, secrets paths</tspan></text>
</g>
<g>
  <rect x="580" y="520" width="390" height="88" rx="18" fill="#eef8f9" stroke="#2b8a92" stroke-width="3"/>
  <text x="775" y="572.05" font-size="23" font-weight="700" fill="#13233a" text-anchor="middle" dominant-baseline="middle"><tspan x="775" dy="0">validate -&gt; plan -&gt; dry-run apply</tspan></text>
</g>
<g>
  <rect x="1088" y="270" width="390" height="96" rx="18" fill="#fff4e6" stroke="#c57a1c" stroke-width="3"/>
  <text x="1283" y="326.05" font-size="23" font-weight="700" fill="#13233a" text-anchor="middle" dominant-baseline="middle"><tspan x="1283" dy="0">apply from release binary</tspan></text>
</g>
<g>
  <rect x="1088" y="430" width="390" height="96" rx="18" fill="#eaf2ff" stroke="#3267b1" stroke-width="3"/>
  <text x="1283" y="472.05" font-size="23" font-weight="700" fill="#13233a" text-anchor="middle" dominant-baseline="middle"><tspan x="1283" dy="0">routerctl status / describe /</tspan><tspan x="1283" dy="28">show</tspan></text>
</g>
<g>
  <rect x="1088" y="590" width="390" height="96" rx="18" fill="#e9f8ef" stroke="#2e7d55" stroke-width="3"/>
  <text x="1283" y="632.05" font-size="23" font-weight="700" fill="#13233a" text-anchor="middle" dominant-baseline="middle"><tspan x="1283" dy="0">confirm management</tspan><tspan x="1283" dy="28">and dataplane</tspan></text>
</g>
<line x1="452" y1="293" x2="580" y2="294" fill="none" stroke="#2f4f6f" stroke-width="4" marker-end="url(#arrow)"/>
<line x1="452" y1="468" x2="580" y2="429" fill="none" stroke="#2f4f6f" stroke-width="4" marker-end="url(#arrow)"/>
<line x1="452" y1="643" x2="580" y2="564" fill="none" stroke="#2f4f6f" stroke-width="4" marker-end="url(#arrow)"/>
<line x1="775" y1="338" x2="775" y2="385" fill="none" stroke="#2f4f6f" stroke-width="4" marker-end="url(#arrow)"/>
<line x1="775" y1="473" x2="775" y2="520" fill="none" stroke="#2f4f6f" stroke-width="4" marker-end="url(#arrow)"/>
<line x1="970" y1="564" x2="1088" y2="318" fill="none" stroke="#2f4f6f" stroke-width="4" marker-end="url(#arrow)"/>
<line x1="1278" y1="366" x2="1278" y2="430" fill="none" stroke="#2f4f6f" stroke-width="4" marker-end="url(#arrow)"/>
<line x1="1278" y1="526" x2="1278" y2="590" fill="none" stroke="#2f4f6f" stroke-width="4" marker-end="url(#arrow)"/>
</g>
</svg>
