<?xml version="1.0" encoding="UTF-8"?>
<svg xmlns="http://www.w3.org/2000/svg" width="1600" height="900" viewBox="0 0 1600 900" font-family="Inter, Arial, Helvetica, sans-serif">
<defs>
  <marker id="arrow" markerWidth="12" markerHeight="12" refX="10" refY="5.5" orient="auto">
    <path d="M 0 0 L 11 5.5 L 0 11 z" fill="#2f4f6f"/>
  </marker>
  <filter id="shadow" x="-10%" y="-10%" width="120%" height="130%">
    <feDropShadow dx="0" dy="5" stdDeviation="5" flood-color="#10233f" flood-opacity="0.14"/>
  </filter>
</defs>
<rect width="1600" height="900" fill="#f7fafc"/>
<rect x="28" y="28" width="1544" height="844" rx="30" fill="#ffffff" stroke="#e2e8f0" stroke-width="2"/>
<text x="74" y="92" font-size="42" font-weight="850" fill="#10233f">dynamic config and provider actions</text>
<text x="76" y="130" font-size="23" font-weight="600" fill="#63758d">Trusted plugins can contribute runtime intent; provider mutations stay journaled and gated.</text>
<g filter="url(#shadow)">
<g>
  <rect x="72" y="178" width="390" height="592" rx="24" fill="#f6f8fb" stroke="#d9e2ef" stroke-width="2"/>
  <text x="100" y="220" font-size="25" font-weight="800" fill="#45556f">Startup owned by operator</text>
</g>
<g>
  <rect x="500" y="178" width="465" height="592" rx="24" fill="#f6f8fb" stroke="#d9e2ef" stroke-width="2"/>
  <text x="528" y="220" font-size="25" font-weight="800" fill="#45556f">Dynamic intent</text>
</g>
<g>
  <rect x="1003" y="178" width="525" height="592" rx="24" fill="#f6f8fb" stroke="#d9e2ef" stroke-width="2"/>
  <text x="1031" y="220" font-size="25" font-weight="800" fill="#45556f">Provider mutation path</text>
</g>
<g>
  <rect x="112" y="260" width="302" height="100" rx="18" fill="#e9f8ef" stroke="#2e7d55" stroke-width="3"/>
  <text x="263" y="304.05" font-size="23" font-weight="700" fill="#13233a" text-anchor="middle" dominant-baseline="middle"><tspan x="263" dy="0">startup config</tspan><tspan x="263" dy="28">fallbacks and policy</tspan></text>
</g>
<g>
  <rect x="112" y="495" width="302" height="100" rx="18" fill="#f5f3ff" stroke="#6d5bd0" stroke-width="3"/>
  <text x="263" y="539.05" font-size="23" font-weight="700" fill="#13233a" text-anchor="middle" dominant-baseline="middle"><tspan x="263" dy="0">DynamicOverridePolicy</tspan><tspan x="263" dy="28">exact masks only</tspan></text>
</g>
<g>
  <rect x="535" y="238" width="382" height="96" rx="18" fill="#eaf2ff" stroke="#3267b1" stroke-width="3"/>
  <text x="726" y="266.05" font-size="23" font-weight="700" fill="#13233a" text-anchor="middle" dominant-baseline="middle"><tspan x="726" dy="0">trusted local plugin</tspan><tspan x="726" dy="28">observe cloud or local</tspan><tspan x="726" dy="28">facts</tspan></text>
</g>
<g>
  <rect x="535" y="388" width="382" height="96" rx="18" fill="#fff4e6" stroke="#c57a1c" stroke-width="3"/>
  <text x="726" y="430.05" font-size="23" font-weight="700" fill="#13233a" text-anchor="middle" dominant-baseline="middle"><tspan x="726" dy="0">DynamicConfigPart</tspan><tspan x="726" dy="28">resources + masks + TTL</tspan></text>
</g>
<g>
  <rect x="535" y="548" width="382" height="96" rx="18" fill="#eef8f9" stroke="#2b8a92" stroke-width="3"/>
  <text x="726" y="590.05" font-size="23" font-weight="700" fill="#13233a" text-anchor="middle" dominant-baseline="middle"><tspan x="726" dy="0">effective config</tspan><tspan x="726" dy="28">reconcile target</tspan></text>
</g>
<g>
  <rect x="1038" y="238" width="420" height="96" rx="18" fill="#fff8df" stroke="#d7a725" stroke-width="3"/>
  <text x="1248" y="280.05" font-size="23" font-weight="700" fill="#13233a" text-anchor="middle" dominant-baseline="middle"><tspan x="1248" dy="0">actionPlans</tspan><tspan x="1248" dy="28">stored as inert proposals</tspan></text>
</g>
<g>
  <rect x="1038" y="388" width="420" height="96" rx="18" fill="#f5f3ff" stroke="#6d5bd0" stroke-width="3"/>
  <text x="1248" y="430.05" font-size="23" font-weight="700" fill="#13233a" text-anchor="middle" dominant-baseline="middle"><tspan x="1248" dy="0">action journal</tspan><tspan x="1248" dy="28">import approve audit</tspan></text>
</g>
<g>
  <rect x="1038" y="548" width="420" height="96" rx="18" fill="#fcefee" stroke="#b64e4a" stroke-width="3"/>
  <text x="1248" y="590.05" font-size="23" font-weight="700" fill="#13233a" text-anchor="middle" dominant-baseline="middle"><tspan x="1248" dy="0">executor plugin</tspan><tspan x="1248" dy="28">no routerd-held credentials</tspan></text>
</g>
<g>
  <rect x="1015" y="680" width="465" height="62" rx="14" fill="#fff8df" stroke="#d7a725" stroke-width="3"/>
  <text x="1247.5" y="706" font-size="20" font-weight="650" fill="#5b4400" text-anchor="middle" dominant-baseline="middle"><tspan x="1247.5" dy="0">Live execution requires ProviderActionPolicy,</tspan><tspan x="1247.5" dy="24">approval, allowlists, and dryRunOnly=false.</tspan></text>
</g>
<line x1="414" y1="310" x2="535" y2="436" fill="none" stroke="#2f4f6f" stroke-width="4" marker-end="url(#arrow)"/>
<line x1="414" y1="545" x2="535" y2="436" fill="none" stroke="#2f4f6f" stroke-width="4" marker-end="url(#arrow)"/>
<line x1="726" y1="334" x2="726" y2="388" fill="none" stroke="#2f4f6f" stroke-width="4" marker-end="url(#arrow)"/>
<line x1="726" y1="484" x2="726" y2="548" fill="none" stroke="#2f4f6f" stroke-width="4" marker-end="url(#arrow)"/>
<path d="M 917 436 C 987 436, 968 286, 1038 286" fill="none" stroke="#2f4f6f" stroke-width="4" marker-end="url(#arrow)"/><text x="977.5" y="349" font-size="22" font-weight="700" fill="#2f4f6f" text-anchor="middle">propose</text>
<line x1="1248" y1="334" x2="1248" y2="388" fill="none" stroke="#2f4f6f" stroke-width="4" marker-end="url(#arrow)"/>
<line x1="1248" y1="484" x2="1248" y2="548" fill="none" stroke="#2f4f6f" stroke-width="4" marker-end="url(#arrow)"/>
<path d="M 1038 596 C 1093 596, 862 596, 917 596" fill="none" stroke="#2f4f6f" stroke-width="4" marker-end="url(#arrow)"/><text x="977.5" y="584" font-size="22" font-weight="700" fill="#2f4f6f" text-anchor="middle">outcome events</text>
</g>
</svg>
