<?xml version="1.0" encoding="UTF-8"?>
<svg xmlns="http://www.w3.org/2000/svg" width="1600" height="900" viewBox="0 0 1600 900" font-family="Inter, Arial, Helvetica, sans-serif">
<defs>
  <marker id="arrow" markerWidth="12" markerHeight="12" refX="10" refY="5.5" orient="auto">
    <path d="M 0 0 L 11 5.5 L 0 11 z" fill="#2f4f6f"/>
  </marker>
  <filter id="shadow" x="-10%" y="-10%" width="120%" height="130%">
    <feDropShadow dx="0" dy="5" stdDeviation="5" flood-color="#10233f" flood-opacity="0.14"/>
  </filter>
</defs>
<rect width="1600" height="900" fill="#f7fafc"/>
<rect x="28" y="28" width="1544" height="844" rx="30" fill="#ffffff" stroke="#e2e8f0" stroke-width="2"/>
<text x="74" y="92" font-size="42" font-weight="850" fill="#10233f">CloudEdge SAM Phase G overview</text>
<text x="76" y="130" font-size="23" font-weight="600" fill="#63758d">Selected /32 addresses move across on-prem, AWS, Azure, and OCI with BGP ownership and provider/on-prem capture.</text>
<g filter="url(#shadow)">
<g>
  <rect x="72" y="176" width="430" height="600" rx="24" fill="#f6f8fb" stroke="#d9e2ef" stroke-width="2"/>
  <text x="100" y="218" font-size="25" font-weight="800" fill="#45556f">Transport</text>
</g>
<g>
  <rect x="112" y="245" width="340" height="92" rx="18" fill="#e9f8ef" stroke="#2e7d55" stroke-width="3"/>
  <text x="282" y="285.05" font-size="23" font-weight="700" fill="#13233a" text-anchor="middle" dominant-baseline="middle"><tspan x="282" dy="0">SAMTransportProfile</tspan><tspan x="282" dy="28">same topologyNodeRefs</tspan></text>
</g>
<g>
  <rect x="112" y="410" width="340" height="92" rx="18" fill="#eaf2ff" stroke="#3267b1" stroke-width="3"/>
  <text x="282" y="450.05" font-size="23" font-weight="700" fill="#13233a" text-anchor="middle" dominant-baseline="middle"><tspan x="282" dy="0">IPIP delivery plane</tspan><tspan x="282" dy="28">inner /31 links</tspan></text>
</g>
<g>
  <rect x="112" y="575" width="340" height="92" rx="18" fill="#f5f3ff" stroke="#6d5bd0" stroke-width="3"/>
  <text x="282" y="615.05" font-size="23" font-weight="700" fill="#13233a" text-anchor="middle" dominant-baseline="middle"><tspan x="282" dy="0">WireGuard optional</tspan><tspan x="282" dy="28">endpoint-only encryption</tspan></text>
</g>
<g>
  <rect x="540" y="176" width="470" height="600" rx="24" fill="#f6f8fb" stroke="#d9e2ef" stroke-width="2"/>
  <text x="568" y="218" font-size="25" font-weight="800" fill="#45556f">Ownership</text>
</g>
<g>
  <rect x="580" y="245" width="390" height="92" rx="18" fill="#e9f8ef" stroke="#2e7d55" stroke-width="3"/>
  <text x="775" y="285.05" font-size="23" font-weight="700" fill="#13233a" text-anchor="middle" dominant-baseline="middle"><tspan x="775" dy="0">BGP best-path</tspan><tspan x="775" dy="28">owns each /32</tspan></text>
</g>
<g>
  <rect x="580" y="410" width="390" height="92" rx="18" fill="#eaf2ff" stroke="#3267b1" stroke-width="3"/>
  <text x="775" y="450.05" font-size="23" font-weight="700" fill="#13233a" text-anchor="middle" dominant-baseline="middle"><tspan x="775" dy="0">liveness marker</tspan><tspan x="775" dy="28">withdraw triggers seize</tspan></text>
</g>
<g>
  <rect x="580" y="575" width="390" height="92" rx="18" fill="#f5f3ff" stroke="#6d5bd0" stroke-width="3"/>
  <text x="775" y="615.05" font-size="23" font-weight="700" fill="#13233a" text-anchor="middle" dominant-baseline="middle"><tspan x="775" dy="0">on-prem RR</tspan><tspan x="775" dy="28">reflects hub-spoke paths</tspan></text>
</g>
<g>
  <rect x="1048" y="176" width="480" height="600" rx="24" fill="#f6f8fb" stroke="#d9e2ef" stroke-width="2"/>
  <text x="1076" y="218" font-size="25" font-weight="800" fill="#45556f">Capture and flow</text>
</g>
<g>
  <rect x="1088" y="245" width="390" height="92" rx="18" fill="#e9f8ef" stroke="#2e7d55" stroke-width="3"/>
  <text x="1283" y="285.05" font-size="23" font-weight="700" fill="#13233a" text-anchor="middle" dominant-baseline="middle"><tspan x="1283" dy="0">cloud secondary IP</tspan><tspan x="1283" dy="28">AWS Azure OCI</tspan></text>
</g>
<g>
  <rect x="1088" y="410" width="390" height="92" rx="18" fill="#eaf2ff" stroke="#3267b1" stroke-width="3"/>
  <text x="1283" y="450.05" font-size="23" font-weight="700" fill="#13233a" text-anchor="middle" dominant-baseline="middle"><tspan x="1283" dy="0">on-prem proxy ARP</tspan><tspan x="1283" dy="28">VRRP or single-router gate</tspan></text>
</g>
<g>
  <rect x="1088" y="575" width="390" height="92" rx="18" fill="#f5f3ff" stroke="#6d5bd0" stroke-width="3"/>
  <text x="1283" y="615.05" font-size="23" font-weight="700" fill="#13233a" text-anchor="middle" dominant-baseline="middle"><tspan x="1283" dy="0">no NAT</tspan><tspan x="1283" dy="28">source IP preserved</tspan></text>
</g>
<line x1="452" y1="476" x2="580" y2="476" fill="none" stroke="#2f4f6f" stroke-width="4" marker-end="url(#arrow)"/><text x="516" y="464" font-size="22" font-weight="700" fill="#2f4f6f" text-anchor="middle">intent</text>
<line x1="970" y1="476" x2="1088" y2="476" fill="none" stroke="#2f4f6f" stroke-width="4" marker-end="url(#arrow)"/><text x="1029" y="464" font-size="22" font-weight="700" fill="#2f4f6f" text-anchor="middle">runtime</text>
<g>
  <rect x="310" y="705" width="980" height="55" rx="14" fill="#fff8df" stroke="#d7a725" stroke-width="3"/>
  <text x="800" y="727.5" font-size="20" font-weight="650" fill="#5b4400" text-anchor="middle" dominant-baseline="middle"><tspan x="800" dy="0">The current design is clean Option B: BGP is the ownership plane, not lease or</tspan><tspan x="800" dy="24">epoch state.</tspan></text>
</g>
</g>
</svg>
